<svg xmlns="http://www.w3.org/2000/svg" viewBox="0 0 208.9 256.26"><defs><style>.cls-1{fill:#fff;}.cls-2{fill:#ffa300;}.cls-3,.cls-5{fill:#3b2a0f;}.cls-4{fill:#ff6c6c;}.cls-5{stroke:#3b2a0f;stroke-miterlimit:10;}.cls-6{fill:#390075;}.cls-7{fill:#f73182;}.cls-8{fill:#efefef;}.cls-9{fill:#ffe600;}.cls-10{opacity:0.52;}.cls-11{fill:#ff9100;}.cls-12{opacity:0.54;}.cls-13{opacity:0.38;}.cls-14{opacity:0.63;}.cls-15{fill:#e69a24;}.cls-16{fill:#f9fcfd;}.cls-17{fill:#423c3c;}.cls-18{fill:#281f18;}.cls-19{opacity:0.1;}.cls-20{fill:#666;}</style></defs><title>CORGI</title><g id="Layer_2" data-name="Layer 2"><g id="Layer_1-2" data-name="Layer 1"><path class="cls-1" d="M190.87,158.07h0a76.4,76.4,0,0,0,5.49-20.8C201.63,92.61,167,52.17,119,46.94S27.79,73.67,22.52,118.32a76,76,0,0,0,.94,23.82h0c-13.46,17.58-8.28,25.27-8,23.43s4.31-5.24,4.12-3.66,10.11,20.74,10.36,16.26A20.54,20.54,0,0,1,31.45,171c2.9,3.67,9.93,7.4,9.93,7.4a148.37,148.37,0,0,0,58.9,19.28,149.61,149.61,0,0,0,65.58-7.35h0v0s7.65-2.3,11.26-5.34a20.38,20.38,0,0,1,0,7.28c-.68,4.44,13.35-12.37,13.49-13.95s3.41,2.53,3.29,4.38S200.44,177.88,190.87,158.07Z"/><path class="cls-2" d="M27.34,92.55c-1.29-7.82-6.85-52,24.58-88.9a5.63,5.63,0,0,1,6.56-1.49c5.7,2.53,17.19,11.61,36.88,42.63a.75.75,0,0,1-.58,1.15c-7.3.57-44.67,5.46-66.66,46.74A.41.41,0,0,1,27.34,92.55Z"/><path class="cls-3" d="M27.75,94.59a2,2,0,0,1-.34,0,2.09,2.09,0,0,1-1.73-1.73,117.61,117.61,0,0,1,0-34.07,115.38,115.38,0,0,1,7.39-27.4A106.93,106.93,0,0,1,50.64,2.56,7.36,7.36,0,0,1,59.16.62c6.45,2.86,18.21,12.69,37.62,43.27a2.4,2.4,0,0,1,.12,2.39,2.43,2.43,0,0,1-2,1.34c-7.12.55-43.74,5.36-65.3,45.85A2.1,2.1,0,0,1,27.75,94.59ZM29,92.28ZM56.21,3.36a4,4,0,0,0-3,1.38,103.55,103.55,0,0,0-17,27.9A111.67,111.67,0,0,0,29,59.23a117.91,117.91,0,0,0-.53,29.33C49.77,51.83,83.28,45.49,93.12,44.41,84.38,30.76,68.93,8.63,57.8,3.69A4,4,0,0,0,56.21,3.36Z"/><path class="cls-2" d="M198.35,113.54c3.17-7.27,19.4-48.77-2-92.21a5.61,5.61,0,0,0-6-3.06c-6.15,1.05-19.51,7-46.2,32.29a.74.74,0,0,0,.27,1.25c6.94,2.34,42,16.25,53.17,61.66A.42.42,0,0,0,198.35,113.54Z"/><path class="cls-3" d="M198,115.47h-.18a2.1,2.1,0,0,1-1.86-1.6c-11-44.54-45.31-58.18-52.08-60.46a2.44,2.44,0,0,1-.89-4.08C169.28,24.45,183.09,17.8,190,16.61a7.36,7.36,0,0,1,7.79,4,106.75,106.75,0,0,1,10,32.22,115.4,115.4,0,0,1,.44,28.38,117.39,117.39,0,0,1-8.34,33h0A2.09,2.09,0,0,1,198,115.47ZM146.38,50.74c9.27,3.45,40.21,17.81,51.83,58.65a118,118,0,0,0,6.68-28.57,112,112,0,0,0-.43-27.54,103.37,103.37,0,0,0-9.65-31.21,4,4,0,0,0-4.2-2.15C178.61,22,158.2,39.65,146.38,50.74Z"/><path class="cls-4" d="M42.83,73.72c-.22.34-2.79-30.7,17.46-56.1,0,0,10.46-1.83,18,32.05C78.32,49.67,51.54,60.51,42.83,73.72Z"/><path class="cls-3" d="M43.68,75.49l-2-.18-.41-.93c-.43-1-.32-6.18-.32-6.23a90.44,90.44,0,0,1,1.37-13.66c1.77-10,6.09-24.67,16.65-37.92l.4-.5L60,16c.36-.06,3.62-.48,7.69,3.83C72.62,25,76.75,35,80,49.3l.31,1.39L79,51.23c-.26.1-26.4,10.8-34.71,23.42h0ZM61.07,19.35c-9.55,12.28-13.59,25.76-15.3,35a86.42,86.42,0,0,0-1.48,14.8C48.42,64.59,54.7,59.94,63,55.27a146.36,146.36,0,0,1,13.35-6.6C70.44,23.16,63.12,19.79,61.07,19.35Z"/><path class="cls-4" d="M188.47,90.86c.13.38,10.63-28.94-2.36-58.71,0,0-9.63-4.47-25.7,26.3C160.41,58.45,183.48,75.85,188.47,90.86Z"/><path class="cls-3" d="M189.19,92.68l-1-.16-1-.17-.32-1C182.11,77.05,159.62,60,159.4,59.79l-1.14-.86.66-1.26c6.81-13,13.36-21.56,19.48-25.34,5-3.11,8.09-1.86,8.42-1.71l.58.27.25.59c6.78,15.53,7.16,30.83,6.28,40.94A89.67,89.67,0,0,1,191.74,86c0,.05-1.26,5.08-1.93,5.93ZM162.55,58c4.3,3.39,19.36,15.78,25.69,28.08a85.34,85.34,0,0,0,2.41-14.68c.73-9.36.31-23.43-5.74-37.76C182.82,33.51,174.88,34.88,162.55,58Z"/><path class="cls-2" d="M102.45,45.39c-48.91,4.23-76.76,35.78-81.16,73.12l0,.25,0,0c-.93,3-13.33,31.07-13.33,31.07s7.86-3.73,15.72-.86l.47.14c9.34,2.92,15.51,9,29.14,10.92a16.63,16.63,0,0,0,9.87-1.66C96.17,141.27,118,96.78,102.45,45.39Z"/><path class="cls-2" d="M138,49.59c46,14.16,65.69,50.69,61.64,88.07l0,.25.06,0c.23,3.1,5.9,33.09,5.9,33.09s-6.71-5.26-14.89-4.07l-.48,0c-9.61.94-16.87,5.64-30.37,4.69a15.88,15.88,0,0,1-9.09-3.65C122.79,144.53,111.71,96.59,138,49.59Z"/><path class="cls-5" d="M116.85,201.47a155.32,155.32,0,0,1-17-.93,154.72,154.72,0,0,1-31.79-6.88,149.89,149.89,0,0,1-28.45-12.82,56.75,56.75,0,0,1-6.26-4c0,.34-.06.69-.08,1a3.84,3.84,0,0,1-2.23,3.46,4,4,0,0,1-3.87-.41c-.6-.39-2.4-1.58-6.85-9.67-.79-1.42-1.53-2.85-2.16-4.13a3.59,3.59,0,0,1-2.2,1.45,3.81,3.81,0,0,1-3.9-1.6c-1.39-1.94-1.67-5.5-.74-9.52a32.28,32.28,0,0,1,2.1-6,9.08,9.08,0,0,0-1.16.3,3.91,3.91,0,0,1-4.05-.61,3.61,3.61,0,0,1-.69-4.09c4.71-10.44,8.86-19.77,11.15-25.08.09-1.51.23-3,.4-4.48a79.81,79.81,0,0,1,11-32A85.52,85.52,0,0,1,52.62,60.86,92.25,92.25,0,0,1,83.44,46a97.27,97.27,0,0,1,70.23,7.65,90.37,90.37,0,0,1,26.58,21.14,83.47,83.47,0,0,1,16.23,28.86,78.87,78.87,0,0,1,3.24,33.57c-.08.67-.17,1.36-.27,2.09,1.39,5.68,4.9,18.76,7.77,29.25h0a3.62,3.62,0,0,1-1.32,3.93,3.9,3.9,0,0,1-4.1,0,18.89,18.89,0,0,0-2.74-1,29.23,29.23,0,0,1,.38,4.14c.07,4.15-.93,7.6-2.69,9.23a3.8,3.8,0,0,1-4.11.8,3.47,3.47,0,0,1-1.86-1.83c-.89,1.14-1.91,2.39-3,3.64-6,7.07-8,7.89-8.69,8.16a4,4,0,0,1-3.88-.35,3.81,3.81,0,0,1-1.49-3.84c0-.33.09-.66.13-1a57.08,57.08,0,0,1-7,2.69l-.18,0a151.89,151.89,0,0,1-32.18,7.33A155,155,0,0,1,116.85,201.47Zm-85.64-30.8,2.11,1.85a48.17,48.17,0,0,0,7.94,5.37l.06,0a147.11,147.11,0,0,0,27.83,12.55,151.59,151.59,0,0,0,31.1,6.73,152.19,152.19,0,0,0,33.87-.09,148.08,148.08,0,0,0,31.5-7.17l.07,0,.21-.06a48.55,48.55,0,0,0,8.93-3.75l2.45-1.42.07,2.83a24.13,24.13,0,0,1-.29,4.37c-.07.46.06.55.11.58s.27.15.67,0,2.3-1.25,7.4-7.23c1.42-1.66,2.76-3.33,3.77-4.7.35-.46.65-.88.89-1.24l1.41-2.09,1.38,2.11a5.47,5.47,0,0,1,1.16,3c0,.09,0,.17.1.21s.44-.1.52-.17c.63-.58,1.68-2.66,1.61-6.7a30,30,0,0,0-.85-6.25l-.66-2.82,2.77.82c4.81,1.42,5.81,2,6.13,2.18a1.06,1.06,0,0,0,.51.13.54.54,0,0,0,0-.25h0c-2.92-10.71-6.52-24.13-7.87-29.66l-.08-.32,0-.33c.13-.82.23-1.58.31-2.32a75.43,75.43,0,0,0-3.11-32.14A79.7,79.7,0,0,0,177.7,77a86.67,86.67,0,0,0-25.6-20.35A92.16,92.16,0,0,0,119,46.56a93.16,93.16,0,0,0-34.64,2.67,89,89,0,0,0-29.7,14.33A82.3,82.3,0,0,0,33,87.22a76.62,76.62,0,0,0-10.52,30.67c-.18,1.49-.31,3-.4,4.57l0,.3-.11.27c-2.28,5.28-6.5,14.77-11.3,25.4a.45.45,0,0,0,0,.24,1,1,0,0,0,.51-.06,26.19,26.19,0,0,1,5.1-1l3.34-.5-1.61,3a32.78,32.78,0,0,0-3.28,8.21c-.9,3.9-.3,6.12.2,6.81.06.08.22.31.47.26s.16-.12.17-.2a5.5,5.5,0,0,1,1.74-2.7L19,160.62,20,163c.16.39.36.86.61,1.38.71,1.54,1.68,3.43,2.72,5.33,3.77,6.83,5.36,8.22,5.76,8.49a.69.69,0,0,0,.65.14c.07,0,.22-.1.24-.57a25.21,25.21,0,0,1,.62-4.34Z"/><path class="cls-3" d="M93.62,163.32s10.75.36,13.58-3.23c0,0,6.19,5.77,11.59,7.33l-2.06,8.45-22.47-1.62Z"/><path class="cls-4" d="M119.58,172c-1.87,9.41-8.88,16.57-15.65,16s-10.73-8.66-8.85-18.07"/><path class="cls-6" d="M105.06,188.26a9.14,9.14,0,0,1-1.17,0c-3.4-.28-6.22-2.37-7.93-5.87a19.75,19.75,0,0,1-1.2-12.46l.63,0a19.44,19.44,0,0,0,1.18,12.25c1.63,3.32,4.26,5.3,7.41,5.57,6.57.56,13.44-6.53,15.28-15.8l.64.05C118.11,181,111.61,188,105.06,188.26Z"/><path class="cls-7" d="M119.06,174.12a23.44,23.44,0,0,1-4.09,8c-3,3.86-7.08,6.17-11,5.83s-7-3.24-8.38-7.48a19.66,19.66,0,0,1-.8-8.46Z"/><path class="cls-3" d="M105.83,171.11a16.44,16.44,0,0,1-.64-3.52,30.64,30.64,0,0,1-.06-3.45c0-1.15.1-2.28.19-3.42a29.94,29.94,0,0,1,.5-3.38,1.83,1.83,0,0,1,3.62.49,29.4,29.4,0,0,1-.4,3.38c-.2,1.12-.43,2.24-.7,3.35a33.75,33.75,0,0,1-1,3.32A15.91,15.91,0,0,1,105.83,171.11Z"/><path class="cls-3" d="M105.16,190.23A10.5,10.5,0,0,1,103,190c-8.87-1.71-14.45-14.32-12.45-28.11a2.5,2.5,0,0,1,2.82-2.3,2.79,2.79,0,0,1,2,3.23c-1.53,10.56,2.42,21.09,8.52,22.27,2.83.55,6.1-.42,8.71-3.46,2.84-3.3,4.49-9.09,5.27-14.47a2.5,2.5,0,0,1,2.81-2.3,2.81,2.81,0,0,1,2,3.24c-.94,6.5-3.41,12.35-6.95,16.46C112.6,188.26,108.9,190.21,105.16,190.23Z"/><path class="cls-6" d="M120.06,165.43a13.45,13.45,0,0,1-3.75-.42,10.81,10.81,0,0,1-8.52-9.25,10.82,10.82,0,0,1-10.64,6.71,10.67,10.67,0,0,1-7.75-3c-1.91-2-2.86-4.95-2.74-8.5l.64,0c-.11,3.38.78,6.16,2.57,8a10,10,0,0,0,7.29,2.82,10.34,10.34,0,0,0,10.39-7.2l.09-.25.66.09,0,.26a10.32,10.32,0,0,0,8.15,9.66,10,10,0,0,0,7.78-.82c2.21-1.35,3.8-3.8,4.57-7.09l.63.15c-.82,3.46-2.5,6-4.87,7.49A9.29,9.29,0,0,1,120.06,165.43Z"/><path class="cls-3" d="M129.49,156.63a11.17,11.17,0,0,1-.58,4.17,9.51,9.51,0,0,1-6.57,6.21,12.22,12.22,0,0,1-4.68.32,6.88,6.88,0,0,1-1.12-.18,8.91,8.91,0,0,1-1.11-.26c-.36-.11-.73-.21-1.09-.33l-1.07-.46a12.39,12.39,0,0,1-3.85-2.76,12.86,12.86,0,0,1-2.54-4,13.59,13.59,0,0,1-.7-2.19,14.54,14.54,0,0,1-.38-2.27l1.91,2-.15,0,2.37-1.45a15,15,0,0,1-2.16,4.06,12.45,12.45,0,0,1-3.5,3.19,12.61,12.61,0,0,1-4.46,1.65l-1.15.15-1.15,0a10.85,10.85,0,0,1-1.14,0,8.89,8.89,0,0,1-1.13-.13,12.34,12.34,0,0,1-4.46-1.5,9.72,9.72,0,0,1-3.49-3.34A9.46,9.46,0,0,1,86,155.15a10.21,10.21,0,0,1,.67-4.21.39.39,0,0,1,.5-.23.37.37,0,0,1,.22.24h0c.87,2.56,1.78,4.77,3.2,6.21a7.74,7.74,0,0,0,2.36,1.72,9.76,9.76,0,0,0,3,.76,12.21,12.21,0,0,0,3.2-.05,8.33,8.33,0,0,0,2.84-.93,8,8,0,0,0,2.31-1.92,9.62,9.62,0,0,0,1.57-2.75v0a2.18,2.18,0,0,1,2.35-1.43l.15,0h0a2.16,2.16,0,0,1,1.87,2,9.38,9.38,0,0,0,.74,3.09,7.71,7.71,0,0,0,1.74,2.49,8.65,8.65,0,0,0,2.53,1.63,13.7,13.7,0,0,0,3.09.86,8.4,8.4,0,0,0,5.87-.92,9.76,9.76,0,0,0,2.49-2.16,26.4,26.4,0,0,0,2.13-3.11h0a.38.38,0,0,1,.52-.13A.39.39,0,0,1,129.49,156.63Z"/><path class="cls-6" d="M108.47,153.48a2.3,2.3,0,0,1-.37,0,2.2,2.2,0,0,1-1.89-2.45l1-7.13a2.19,2.19,0,0,1,4.34.57l-1,7.13A2.18,2.18,0,0,1,108.47,153.48Z"/><path class="cls-3" d="M122.51,144c-.56,4.2-7.32,9.05-14.74,8.07s-12.68-7.43-12.12-11.64,6.62-3.76,14-2.78S123.07,139.76,122.51,144Z"/><path class="cls-1" d="M115.05,141.75c-.13.92-2.9,1.81-6.12,1.39s-5.67-2-5.54-2.94,2.74-.65,6-.23S115.17,140.83,115.05,141.75Z"/><path class="cls-6" d="M111.1,143.53a13.73,13.73,0,0,1-2.21-.1,11.87,11.87,0,0,1-4.13-1.32c-1.14-.64-1.74-1.35-1.66-2,.1-.79,1.25-.88,2.11-.87a35.83,35.83,0,0,1,4.18.39,39,39,0,0,1,4.14.71c.82.22,1.91.61,1.81,1.4-.08.59-.85,1.12-2.12,1.44A10,10,0,0,1,111.1,143.53Zm-6.27-3.65c-1,0-1.14.28-1.15.36,0,.26.38.8,1.37,1.36a11.73,11.73,0,0,0,8,1.07c1.1-.29,1.64-.7,1.68-1h0c0-.09-.06-.4-1.38-.75a37.16,37.16,0,0,0-4.07-.7,37.19,37.19,0,0,0-4.11-.39Z"/><path class="cls-3" d="M80,129.53c-.81-.86-1.6-1.78-2.39-2.6s-1.57-1.6-2.37-2.3a18.09,18.09,0,0,0-5-3.24,12.53,12.53,0,0,0-2.8-.81,17.05,17.05,0,0,0-3.08-.27,47.41,47.41,0,0,0-6.92.63h0a1,1,0,0,1-.82-1.8,16.64,16.64,0,0,1,7.12-3.7,15.73,15.73,0,0,1,2.09-.38c.36,0,.72,0,1.09-.06A8,8,0,0,1,68,115a15.11,15.11,0,0,1,2.21.25,16,16,0,0,1,2.15.61,14.42,14.42,0,0,1,6.87,5.3,15.37,15.37,0,0,1,1.9,3.69,12.23,12.23,0,0,1,.75,4.06,1,1,0,0,1-1.79.72Z"/><path class="cls-3" d="M137.77,133.55a12.22,12.22,0,0,1,1.4-3.89,15.64,15.64,0,0,1,2.49-3.33,14.5,14.5,0,0,1,7.64-4.1,16.54,16.54,0,0,1,2.23-.25,16.2,16.2,0,0,1,2.21.12,8,8,0,0,1,1.09.17c.35.08.71.14,1,.24a17.63,17.63,0,0,1,2,.71,16.74,16.74,0,0,1,6.42,4.83,1,1,0,0,1-1.11,1.63h0a48.62,48.62,0,0,0-6.72-1.76,16.44,16.44,0,0,0-3.09-.23,12,12,0,0,0-2.89.33A18.32,18.32,0,0,0,145,130.4c-.9.56-1.8,1.19-2.71,1.88s-1.85,1.46-2.79,2.18l-.11.08a1,1,0,0,1-1.65-1Z"/><path class="cls-8" d="M165.37,90.41v0c-.05-.18-.12-.36-.18-.54l0-.09v0a.36.36,0,0,1,0-.09v0l-.09-.23-.11-.19,0-.09a2.75,2.75,0,0,0-.19-.28l-.37-.56-.15-.24,0-.07,0,0-.1-.14-.18-.2-.2-.19-.05-.06-.14-.15-.11-.12-.18-.2,0,0,0,0,0,0c-.13-.14-.25-.29-.39-.42l-.47-.44-.23-.2-.06,0-.11-.1-.16-.15-.08-.06,0,0-.15-.12-.23-.2c-.27-.18-.52-.35-.78-.5l-.65-.41a7.23,7.23,0,0,0-.74-.42l0,0a13.19,13.19,0,0,0-1.51-.67c-.58-.23-1.06-.4-1.53-.55l-.21-.06-.61-.17h-.17l-.1,0h-.09l-.1,0h-.09l-.25,0-.48-.06a7.39,7.39,0,0,0-1.06,0,8.59,8.59,0,0,0-1,.11,5.16,5.16,0,0,0-1.44.42l-.26.11-.07,0,0,0-.09,0-.28.14-.09,0h-.05l-.25.15L149,83l-.14.09-.18.07-.34.27-.05,0-.18.15a2.69,2.69,0,0,1-.27.2l-.09.06-.14.09-.08,0-.16.11c-.08.06-.16.11-.24.18l-.09.07-.08.06a1.59,1.59,0,0,0-.22.18l0,0,0,0-.25.23,0,0-.17.16-.12.11-.1.09-.35.34,0,0,0,0-.11.11,0,0,0,0-.23.26a7.5,7.5,0,0,0-.48.72l-.06.11c-.07.13-.13.26-.2.41l0,.09.16,0h.11a1.86,1.86,0,0,1,.34-.06l.38,0h.7l.2,0,.36,0,.18,0,.56,0h.53a5.76,5.76,0,0,1,.59,0h.94l.49,0H150l.37,0h.1l.52.07.16,0,.11,0,.21,0,.12,0,.12,0,.13,0h.93l1.06.14.23,0,.14,0,.18,0,.79.13.66.13.19,0,.2,0,.28,0,.54.08.37,0,.91.19h0c.3,0,.62.12,1,.21l.4.1.07,0,.34.08.11,0,.24,0h.05l.21,0,.13,0,.08,0,.35.08c.33.08.68.18,1.08.31s.65.21,1,.34l.54.22.06,0,.42.18.33.14.24.1a2.55,2.55,0,0,1,.39.13h.09C165.4,90.54,165.39,90.47,165.37,90.41Z"/><path class="cls-8" d="M86.08,83.64a3.57,3.57,0,0,0-.12-.4l0-.11a7.15,7.15,0,0,0-.36-.74l0-.07-.14-.22,0,0-.12-.17c-.11-.15-.22-.31-.35-.46l-.32-.4-.26-.32,0,0,0,0-.19-.21,0,0,0,0-.06-.07-.19-.19-.07-.06-.27-.24,0,0a3.38,3.38,0,0,1-.27-.26l-.15-.17L82.59,79l-.09-.06-.06,0-.1-.09,0,0-.08-.06L82,78.53l0,0-.07-.05-.15-.11-.12-.08-.06,0-.08-.06-.06,0L81.2,78a5.84,5.84,0,0,0-1.35-.65c-.38-.13-.7-.23-1-.3s-.6-.12-.86-.16l-.19,0-.49,0H76.5l-.56,0h-.06l-.22,0c-.5,0-1,.11-1.59.2a13.19,13.19,0,0,0-1.6.34c-.34.09-.58.16-.83.25l-.7.25c-.29.1-.57.2-.85.32l-.25.14-.15.07,0,0-.12.06-.13.07-.18.1-.1,0-.09.05-.13.07c-.18.1-.36.2-.53.31s-.33.22-.5.34l0,0a2.27,2.27,0,0,1-.25.18l-.08.06,0,0-.15.1-.1.06-.09.06-.1.07a1.88,1.88,0,0,0-.23.16l-.13.13-.05,0-.09.09-.09.1c-.15.15-.3.3-.46.44a1.66,1.66,0,0,0-.23.23l-.08.08-.12.14a1.74,1.74,0,0,0-.13.2l0,0,0,.09-.07.1-.27.47v0a.62.62,0,0,0-.07.19l.07,0h0a2.17,2.17,0,0,1,.41-.05l.17,0,.43-.07.47-.1.6-.11c.32,0,.64-.08,1-.12s.76-.07,1.1-.09h4.36l.53,0h1.35l1,.05h.34c.41,0,.86.06,1.3.11l.29,0a2.76,2.76,0,0,0,.4.06l.37,0,.32,0h.17l.51,0c.12,0,.23,0,.34,0l.2,0,.12,0,.37,0,.35.07.14,0,.37.06h.07l.57.1.53.11a4.64,4.64,0,0,1,.54.13l.19.05.34.1.23.06.26.07.15,0,.24.06.36.1.32.11.08,0,.12,0,.07,0v0Z"/><rect class="cls-9" x="80.88" y="236.86" width="85.13" height="17.55" rx="5.08"/><g class="cls-10"><path class="cls-11" d="M163.24,252.26l-70.78-2.94a6.08,6.08,0,0,1-6.06-6.07v-5.41a5.89,5.89,0,0,1,.08-1,6.07,6.07,0,0,0-5.6,6v5.41a6.08,6.08,0,0,0,6.06,6.07h73a6.08,6.08,0,0,0,6-5.11C165.77,249.31,163.4,252.26,163.24,252.26Z"/></g><g class="cls-12"><path class="cls-1" d="M84.16,239.18,155.34,242a6.08,6.08,0,0,1,6.07,6.06v5.42a6,6,0,0,1-.09,1,6.08,6.08,0,0,0,5.61-6v-5.42a6.08,6.08,0,0,0-6.06-6.06h-73a6.07,6.07,0,0,0-6,5.11C82,242,84,239.18,84.16,239.18Z"/></g><g class="cls-10"><path class="cls-11" d="M89.22,249.45h0a1.12,1.12,0,0,1-1.12-1.12v-6.18A1.13,1.13,0,0,1,89.22,241h0a1.12,1.12,0,0,1,1.12,1.12v6.18A1.12,1.12,0,0,1,89.22,249.45Z"/></g><g class="cls-10"><path class="cls-11" d="M96,249.45h0a1.12,1.12,0,0,1-1.12-1.12v-6.18A1.12,1.12,0,0,1,96,241h0a1.13,1.13,0,0,1,1.12,1.12v6.18A1.12,1.12,0,0,1,96,249.45Z"/></g><g class="cls-10"><path class="cls-11" d="M102.8,249.45h0a1.12,1.12,0,0,1-1.12-1.12v-6.18A1.12,1.12,0,0,1,102.8,241h0a1.12,1.12,0,0,1,1.11,1.12v6.18A1.12,1.12,0,0,1,102.8,249.45Z"/></g><g class="cls-10"><rect class="cls-11" x="108.46" y="241.03" width="2.24" height="8.42" rx="1.12"/></g><g class="cls-10"><path class="cls-11" d="M116.37,249.45h0a1.12,1.12,0,0,1-1.12-1.12v-6.18a1.12,1.12,0,0,1,1.12-1.12h0a1.13,1.13,0,0,1,1.12,1.12v6.18A1.12,1.12,0,0,1,116.37,249.45Z"/></g><g class="cls-10"><path class="cls-11" d="M123.15,249.45h0a1.12,1.12,0,0,1-1.11-1.12v-6.18a1.12,1.12,0,0,1,1.11-1.12h0a1.12,1.12,0,0,1,1.12,1.12v6.18A1.12,1.12,0,0,1,123.15,249.45Z"/></g><g class="cls-10"><path class="cls-11" d="M129.94,249.45h0a1.12,1.12,0,0,1-1.12-1.12v-6.18a1.13,1.13,0,0,1,1.12-1.12h0a1.12,1.12,0,0,1,1.12,1.12v6.18A1.12,1.12,0,0,1,129.94,249.45Z"/></g><g class="cls-10"><rect class="cls-11" x="135.61" y="241.03" width="2.24" height="8.42" rx="1.12"/></g><g class="cls-10"><path class="cls-11" d="M143.51,249.45h0a1.12,1.12,0,0,1-1.12-1.12v-6.18a1.13,1.13,0,0,1,1.12-1.12h0a1.12,1.12,0,0,1,1.12,1.12v6.18A1.12,1.12,0,0,1,143.51,249.45Z"/></g><g class="cls-10"><path class="cls-11" d="M150.3,249.45h0a1.12,1.12,0,0,1-1.12-1.12v-6.18A1.12,1.12,0,0,1,150.3,241h0a1.13,1.13,0,0,1,1.12,1.12v6.18A1.12,1.12,0,0,1,150.3,249.45Z"/></g><g class="cls-10"><path class="cls-11" d="M157.09,249.45h0a1.12,1.12,0,0,1-1.12-1.12v-6.18a1.12,1.12,0,0,1,1.12-1.12h0a1.12,1.12,0,0,1,1.11,1.12v6.18A1.12,1.12,0,0,1,157.09,249.45Z"/></g><path class="cls-3" d="M161.82,256.26H85.06a6,6,0,0,1-6-6V241a6,6,0,0,1,6-6h76.76a6,6,0,0,1,6,6v9.19A6,6,0,0,1,161.82,256.26ZM85.06,238.72A2.32,2.32,0,0,0,82.73,241v9.19a2.33,2.33,0,0,0,2.33,2.33h76.76a2.33,2.33,0,0,0,2.33-2.33V241a2.32,2.32,0,0,0-2.33-2.32Z"/><rect class="cls-9" x="92.06" y="219.23" width="85.13" height="17.55" rx="5.08"/><g class="cls-10"><path class="cls-11" d="M174.43,234.62l-70.78-2.94a6.08,6.08,0,0,1-6.06-6.06V220.2a6,6,0,0,1,.08-.95,6.09,6.09,0,0,0-5.61,6v5.42a6.08,6.08,0,0,0,6.07,6.06h73a6.09,6.09,0,0,0,6-5.11C177,231.67,174.58,234.62,174.43,234.62Z"/></g><g class="cls-12"><path class="cls-1" d="M95.35,221.54l71.18,2.79a6.08,6.08,0,0,1,6.06,6.06v5.42a6,6,0,0,1-.08.95,6.09,6.09,0,0,0,5.61-6V225.3a6.08,6.08,0,0,0-6.07-6.06h-73a6.08,6.08,0,0,0-6,5.11C93.23,224.34,95.19,221.54,95.35,221.54Z"/></g><g class="cls-10"><path class="cls-11" d="M100.41,231.81h0a1.12,1.12,0,0,1-1.12-1.12v-6.18a1.12,1.12,0,0,1,1.12-1.11h0a1.12,1.12,0,0,1,1.12,1.11v6.18A1.12,1.12,0,0,1,100.41,231.81Z"/></g><g class="cls-10"><path class="cls-11" d="M107.2,231.81h0a1.12,1.12,0,0,1-1.12-1.12v-6.18a1.12,1.12,0,0,1,1.12-1.11h0a1.12,1.12,0,0,1,1.12,1.11v6.18A1.12,1.12,0,0,1,107.2,231.81Z"/></g><g class="cls-10"><path class="cls-11" d="M114,231.81h0a1.12,1.12,0,0,1-1.12-1.12v-6.18A1.12,1.12,0,0,1,114,223.4h0a1.12,1.12,0,0,1,1.12,1.11v6.18A1.12,1.12,0,0,1,114,231.81Z"/></g><g class="cls-10"><rect class="cls-11" x="119.65" y="223.4" width="2.24" height="8.42" rx="1.12"/></g><g class="cls-10"><path class="cls-11" d="M127.56,231.81h0a1.12,1.12,0,0,1-1.12-1.12v-6.18a1.12,1.12,0,0,1,1.12-1.11h0a1.11,1.11,0,0,1,1.11,1.11v6.18A1.12,1.12,0,0,1,127.56,231.81Z"/></g><g class="cls-10"><path class="cls-11" d="M134.34,231.81h0a1.12,1.12,0,0,1-1.12-1.12v-6.18a1.12,1.12,0,0,1,1.12-1.11h0a1.12,1.12,0,0,1,1.12,1.11v6.18A1.12,1.12,0,0,1,134.34,231.81Z"/></g><g class="cls-10"><path class="cls-11" d="M141.13,231.81h0a1.12,1.12,0,0,1-1.12-1.12v-6.18a1.12,1.12,0,0,1,1.12-1.11h0a1.12,1.12,0,0,1,1.12,1.11v6.18A1.12,1.12,0,0,1,141.13,231.81Z"/></g><g class="cls-10"><rect class="cls-11" x="146.8" y="223.4" width="2.24" height="8.42" rx="1.12"/></g><g class="cls-10"><path class="cls-11" d="M154.7,231.81h0a1.12,1.12,0,0,1-1.12-1.12v-6.18a1.12,1.12,0,0,1,1.12-1.11h0a1.12,1.12,0,0,1,1.12,1.11v6.18A1.12,1.12,0,0,1,154.7,231.81Z"/></g><g class="cls-10"><path class="cls-11" d="M161.49,231.81h0a1.12,1.12,0,0,1-1.12-1.12v-6.18a1.12,1.12,0,0,1,1.12-1.11h0a1.12,1.12,0,0,1,1.12,1.11v6.18A1.12,1.12,0,0,1,161.49,231.81Z"/></g><g class="cls-10"><path class="cls-11" d="M168.27,231.81h0a1.12,1.12,0,0,1-1.12-1.12v-6.18a1.12,1.12,0,0,1,1.12-1.11h0a1.12,1.12,0,0,1,1.12,1.11v6.18A1.12,1.12,0,0,1,168.27,231.81Z"/></g><path class="cls-3" d="M173,238.62H96.24a6,6,0,0,1-6-6V223.4a6,6,0,0,1,6-6H173a6,6,0,0,1,6,6v9.19A6,6,0,0,1,173,238.62ZM96.24,221.08a2.32,2.32,0,0,0-2.32,2.32v9.19a2.32,2.32,0,0,0,2.32,2.33H173a2.33,2.33,0,0,0,2.33-2.33V223.4a2.33,2.33,0,0,0-2.33-2.32Z"/><rect class="cls-9" x="82.11" y="201.46" width="85.13" height="17.55" rx="5.08"/><g class="cls-10"><path class="cls-11" d="M164.48,216.86,93.7,213.92a6.09,6.09,0,0,1-6.07-6.07v-5.41a5.88,5.88,0,0,1,.09-.95,6.08,6.08,0,0,0-5.61,6v5.41A6.09,6.09,0,0,0,88.18,219h73a6.08,6.08,0,0,0,6-5.11C167,213.91,164.63,216.86,164.48,216.86Z"/></g><g class="cls-12"><path class="cls-1" d="M85.4,203.78l71.18,2.79a6.08,6.08,0,0,1,6.06,6.06v5.42a6,6,0,0,1-.08.95,6.09,6.09,0,0,0,5.61-6v-5.42a6.08,6.08,0,0,0-6.07-6.06h-73a6.07,6.07,0,0,0-6,5.11C83.27,206.58,85.24,203.78,85.4,203.78Z"/></g><g class="cls-10"><path class="cls-11" d="M90.46,214.05h0a1.12,1.12,0,0,1-1.12-1.12v-6.18a1.12,1.12,0,0,1,1.12-1.12h0a1.13,1.13,0,0,1,1.12,1.12v6.18A1.12,1.12,0,0,1,90.46,214.05Z"/></g><g class="cls-10"><path class="cls-11" d="M97.24,214.05h0a1.12,1.12,0,0,1-1.11-1.12v-6.18a1.12,1.12,0,0,1,1.11-1.12h0a1.12,1.12,0,0,1,1.12,1.12v6.18A1.12,1.12,0,0,1,97.24,214.05Z"/></g><g class="cls-10"><path class="cls-11" d="M104,214.05h0a1.12,1.12,0,0,1-1.12-1.12v-6.18a1.13,1.13,0,0,1,1.12-1.12h0a1.12,1.12,0,0,1,1.12,1.12v6.18A1.12,1.12,0,0,1,104,214.05Z"/></g><g class="cls-10"><rect class="cls-11" x="109.7" y="205.63" width="2.24" height="8.42" rx="1.12"/></g><g class="cls-10"><path class="cls-11" d="M117.6,214.05h0a1.12,1.12,0,0,1-1.12-1.12v-6.18a1.13,1.13,0,0,1,1.12-1.12h0a1.12,1.12,0,0,1,1.12,1.12v6.18A1.12,1.12,0,0,1,117.6,214.05Z"/></g><g class="cls-10"><path class="cls-11" d="M124.39,214.05h0a1.12,1.12,0,0,1-1.12-1.12v-6.18a1.12,1.12,0,0,1,1.12-1.12h0a1.13,1.13,0,0,1,1.12,1.12v6.18A1.12,1.12,0,0,1,124.39,214.05Z"/></g><g class="cls-10"><path class="cls-11" d="M131.18,214.05h0a1.12,1.12,0,0,1-1.12-1.12v-6.18a1.12,1.12,0,0,1,1.12-1.12h0a1.12,1.12,0,0,1,1.11,1.12v6.18A1.12,1.12,0,0,1,131.18,214.05Z"/></g><g class="cls-10"><rect class="cls-11" x="136.84" y="205.63" width="2.24" height="8.42" rx="1.12"/></g><g class="cls-10"><path class="cls-11" d="M144.75,214.05h0a1.12,1.12,0,0,1-1.12-1.12v-6.18a1.12,1.12,0,0,1,1.12-1.12h0a1.13,1.13,0,0,1,1.12,1.12v6.18A1.12,1.12,0,0,1,144.75,214.05Z"/></g><g class="cls-10"><path class="cls-11" d="M151.53,214.05h0a1.12,1.12,0,0,1-1.11-1.12v-6.18a1.12,1.12,0,0,1,1.11-1.12h0a1.12,1.12,0,0,1,1.12,1.12v6.18A1.12,1.12,0,0,1,151.53,214.05Z"/></g><g class="cls-10"><path class="cls-11" d="M158.32,214.05h0a1.12,1.12,0,0,1-1.12-1.12v-6.18a1.13,1.13,0,0,1,1.12-1.12h0a1.12,1.12,0,0,1,1.12,1.12v6.18A1.12,1.12,0,0,1,158.32,214.05Z"/></g><path class="cls-3" d="M163.06,220.86H86.29a6,6,0,0,1-6-6v-9.19a6,6,0,0,1,6-6h76.77a6,6,0,0,1,6,6v9.19A6,6,0,0,1,163.06,220.86ZM86.29,203.32A2.32,2.32,0,0,0,84,205.64v9.19a2.33,2.33,0,0,0,2.32,2.33h76.77a2.34,2.34,0,0,0,2.33-2.33v-9.19a2.33,2.33,0,0,0-2.33-2.32Z"/><circle class="cls-9" cx="53.79" cy="212.23" r="43.54"/><circle class="cls-9" cx="52.67" cy="210.69" r="43.54"/><path class="cls-3" d="M52.67,256.26a45.43,45.43,0,1,1,17.74-3.58A45.24,45.24,0,0,1,52.67,256.26Zm0-87.08a41.37,41.37,0,1,0,16.16,3.26A41.36,41.36,0,0,0,52.67,169.18Z"/><g class="cls-13"><path class="cls-1" d="M52.52,175.37c-19.5,0-35.31,15.56-35.31,34.76S33,244.89,52.52,244.89a33.53,33.53,0,1,1,33.53-33.53,33.53,33.53,0,0,1-33.53,33.53c19.5,0,35.3-15.57,35.3-34.76S72,175.37,52.52,175.37Z"/></g><g class="cls-10"><circle class="cls-11" cx="52.56" cy="211.36" r="33.53"/></g><g class="cls-14"><path class="cls-11" d="M52.56,239.6a33.52,33.52,0,0,1-33.42-30.88c-.07.87-.11,1.75-.11,2.64a33.53,33.53,0,1,0,67.05,0c0-.89,0-1.77-.11-2.64A33.52,33.52,0,0,1,52.56,239.6Z"/></g><g class="cls-10"><path class="cls-11" d="M52.21,180.77A33.53,33.53,0,0,1,85.74,214.3c0,.71,0,1.42-.07,2.12a33.53,33.53,0,1,0-66.6-7.18A33.53,33.53,0,0,1,52.21,180.77Z"/></g><path class="cls-15" d="M38.52,203.77a15.67,15.67,0,0,1,6-6A17,17,0,0,1,53,195.63a16.75,16.75,0,0,1,9.66,2.83,14.8,14.8,0,0,1,5.8,7.83H60.89a7.86,7.86,0,0,0-3.18-3.54A9.42,9.42,0,0,0,53,201.57a9.68,9.68,0,0,0-5.11,1.35,9.09,9.09,0,0,0-3.49,3.79,13.8,13.8,0,0,0,0,11.48A9.11,9.11,0,0,0,47.86,222,9.67,9.67,0,0,0,53,223.35a9.23,9.23,0,0,0,4.74-1.2,8,8,0,0,0,3.18-3.56h7.59a14.68,14.68,0,0,1-5.77,7.85A16.82,16.82,0,0,1,53,229.25a17,17,0,0,1-8.51-2.15,15.73,15.73,0,0,1-6-6,18.32,18.32,0,0,1,0-17.37Z"/><rect class="cls-15" x="48.37" y="190.78" width="4.19" height="5.45" rx="1.82"/><rect class="cls-15" x="54.68" y="190.78" width="4.19" height="5.45" rx="1.82"/><rect class="cls-15" x="48.94" y="228" width="4.19" height="5.45" rx="1.82"/><rect class="cls-15" x="55.26" y="228" width="4.19" height="5.45" rx="1.82"/><path class="cls-3" d="M23.12,206.62a22,22,0,0,1-8.28-1.6C2.07,199.88-3.54,183.84,2.33,169.26a30.58,30.58,0,0,1,14.14-15.9,23.35,23.35,0,0,1,19.66-1.23c12.77,5.14,18.38,21.18,12.51,35.77h0C44,199.41,33.58,206.62,23.12,206.62Zm4.68-51a19.61,19.61,0,0,0-9,2.27A25.43,25.43,0,0,0,7.09,171.17c-4.81,12-.48,25,9.67,29.09S39.07,197.94,43.88,186h0c4.82-12,.48-25-9.66-29.09A17.09,17.09,0,0,0,27.8,155.65Zm18.46,31.29h0Z"/><ellipse class="cls-16" cx="26.14" cy="178.57" rx="24.42" ry="21.08" transform="translate(-149.27 136.14) rotate(-68.07)"/><path class="cls-3" d="M27.41,188.6a.37.37,0,0,1,.64-.33v0a10.06,10.06,0,0,0,1.33,1.36,14.65,14.65,0,0,0,3.15,2c.54.28,1.14.49,1.69.74h0c.59.22,1.17.41,1.76.6s1.2.34,1.8.49l1.82.4,2,.44c1.59.35.64,1.48.29,3.08a2.93,2.93,0,0,1-3.5,2.25,2.88,2.88,0,0,1-1-.41l-1.79-1.16c-.58-.41-1.16-.84-1.73-1.26s-1.11-.9-1.64-1.37-1.05-1-1.53-1.5a16.55,16.55,0,0,1-2.53-3.42,9.9,9.9,0,0,1-.84-1.92Z"/><path class="cls-3" d="M36.59,178.22a.66.66,0,0,1,.93-.91l.29.19a18.77,18.77,0,0,0,3,1.57,17.12,17.12,0,0,0,3.1,1,17.58,17.58,0,0,0,3.1.37,3,3,0,0,1-.3,5.91,3.05,3.05,0,0,1-1.15-.3l0,0a22.8,22.8,0,0,1-3.46-2,20.39,20.39,0,0,1-2.92-2.54,19.5,19.5,0,0,1-2.35-2.9Z"/><path class="cls-3" d="M141.25,211.19h0c-5.87-14.58-.26-30.63,12.51-35.76a23.35,23.35,0,0,1,19.66,1.23,30.48,30.48,0,0,1,14.14,15.89c5.87,14.59.26,30.63-12.51,35.77a22.13,22.13,0,0,1-8.28,1.6C156.31,229.92,145.88,222.71,141.25,211.19Zm14.43-31c-10.15,4.08-14.48,17.13-9.67,29.09h0c4.81,12,17,18.36,27.13,14.28s14.48-17.13,9.66-29.09a25.39,25.39,0,0,0-11.73-13.25,19.61,19.61,0,0,0-9-2.27A17,17,0,0,0,155.68,180.19Zm-12.05,30.05Z"/><ellipse class="cls-16" cx="163.76" cy="201.86" rx="21.08" ry="24.42" transform="translate(-63.53 75.75) rotate(-21.93)"/><path class="cls-3" d="M162.12,211.55a.36.36,0,0,0-.65-.3v0a10.07,10.07,0,0,1-1.26,1.42,14.06,14.06,0,0,1-3,2.16c-.52.32-1.11.56-1.65.83h0c-.57.24-1.15.47-1.72.68s-1.18.4-1.78.58l-1.8.49-.08,0c-2.6.69-2.51,2-2.08,3.61a2.94,2.94,0,0,0,4.57,1.62l1.73-1.25c.57-.44,1.12-.9,1.67-1.35s1.06-1,1.57-1.45,1-1,1.46-1.57a17.06,17.06,0,0,0,2.36-3.54,10.76,10.76,0,0,0,.73-2Z"/><path class="cls-3" d="M153.3,201.52a.66.66,0,0,0-.93-.91l-.29.19a18.68,18.68,0,0,1-3,1.57,17.17,17.17,0,0,1-3.11,1,16.51,16.51,0,0,1-3.09.38,3,3,0,1,0,1.45,5.61l0,0a22.32,22.32,0,0,0,3.46-2,21,21,0,0,0,2.92-2.54,20.79,20.79,0,0,0,2.36-2.9Z"/><path class="cls-17" d="M104.08,107.38C98.84,101,60.89,88.28,45.3,83.25c-5.38-1.74-11.3.49-13.65,5.11-2.06,4.07-4,10.42-4.93,20.29-2.4,25.86,47.85,41.23,64.67,33.81S110.69,115.44,104.08,107.38Z"/><path class="cls-17" d="M202.1,110.19c-.92-5-6-8.68-11.66-8.36-16.47.92-56.7,3.64-63.59,8.47-8.71,6.1-12,25.59,2,37s66.88,9.2,72.07-16.3C203,121.22,202.91,114.63,202.1,110.19Z"/><path class="cls-3" d="M104.16,107.27C98.92,100.89,61,88.17,45.38,83.14c-5.38-1.74-11.3.49-13.65,5.11-2.07,4.08-4,10.42-4.93,20.29-2.4,25.86,47.85,41.23,64.67,33.81S110.77,115.34,104.16,107.27ZM88.55,139.14c-14.56,6.42-58-6.88-56-29.26.79-8.54,2.48-14,4.27-17.55,2-4,7.16-5.93,11.82-4.43C62.16,92.25,95,103.26,99.53,108.78,105.25,115.76,103.1,132.72,88.55,139.14Z"/><path class="cls-3" d="M202.18,110.08c-.92-5-6-8.68-11.66-8.36-16.47.92-56.7,3.64-63.6,8.47-8.7,6.1-12,25.59,2,37s66.88,9.2,72.08-16.3C203,121.12,203,114.52,202.18,110.08ZM196,130.42c-4.5,22.07-50.22,24-62.37,14.11s-9.3-26.7-1.77-32c6-4.18,40.78-6.53,55-7.33,4.93-.28,9.3,2.86,10.09,7.23C197.63,116.29,197.67,122,196,130.42Z"/><path class="cls-18" d="M45.22,98.11a7.91,7.91,0,0,1,9.48-3.55c10.82,3.49,37.16,12.32,40.8,16.75,4.59,5.6,2.86,19.2-8.81,24.35s-46.55-5.52-44.89-23.47C42.43,105.34,43.79,100.94,45.22,98.11Z"/><path class="cls-3" d="M77.65,138a46,46,0,0,1-6.57-.74,55.52,55.52,0,0,1-18.64-6.94,29.32,29.32,0,0,1-8.86-7.91,15.19,15.19,0,0,1-3-10.33c.56-6.07,1.75-10.93,3.53-14.43h0c1.9-3.75,6.61-5.51,11-4.11,5,1.6,14.56,4.77,23.15,8,15.65,6,17.58,8.31,18.21,9.08,2.53,3.08,3.27,8.08,2,13a19.38,19.38,0,0,1-11.18,12.9A22.29,22.29,0,0,1,77.65,138ZM45.22,98.11l1.1.45c-1.67,3.28-2.79,7.9-3.33,13.73a13.29,13.29,0,0,0,2.61,9,27.21,27.21,0,0,0,8.19,7.27,53.24,53.24,0,0,0,17.74,6.6c6.11,1.11,11.44.94,14.62-.46a17.24,17.24,0,0,0,9.92-11.49c1.15-4.3.55-8.73-1.54-11.27-2.37-2.89-17.41-9-40.23-16.37a6.62,6.62,0,0,0-8,3Z"/><path class="cls-18" d="M187.9,115.18c-.63-3.5-4.14-6-8.09-5.8-11.43.64-39.36,2.53-44.14,5.88-6,4.23-8.33,17.76,1.41,25.66s46.43,6.38,50-11.32C188.49,122.84,188.46,118.26,187.9,115.18Z"/><path class="cls-3" d="M153.81,146.51q-1.09,0-2.16-.12c-6.82-.52-12.28-2.18-15.37-4.68a18.47,18.47,0,0,1-7-15.23c.17-5.11,2.33-9.74,5.66-12.07.83-.58,3.37-2.36,20.17-4.17,9.22-1,19.39-1.64,24.63-1.93,4.6-.26,8.62,2.63,9.37,6.71h0c.69,3.82.43,8.79-.79,14.78a15.86,15.86,0,0,1-5.86,9.2,31.25,31.25,0,0,1-10.84,5.39A56.39,56.39,0,0,1,153.81,146.51Zm26.78-36.07h-.69c-24.11,1.35-40.36,3.47-43.49,5.66-2.74,1.92-4.61,6-4.75,10.46a16.42,16.42,0,0,0,6.22,13.55c2.66,2.15,7.74,3.66,13.94,4.13a54.9,54.9,0,0,0,19-1.9,28.64,28.64,0,0,0,10-4.95,13.76,13.76,0,0,0,5.12-8c1.18-5.75,1.44-10.48.79-14.06h0A6.29,6.29,0,0,0,180.59,110.44Z"/><g class="cls-19"><path class="cls-20" d="M62,98.05s-16.17,12.39-14,26.09c.44,2.76,9.56,6.24,9.56,6.24s-.63-19,15.35-28Z"/></g><g class="cls-19"><path class="cls-20" d="M75.35,103.16s-16.9,10.14-15.26,28.42L65,133.47s1.65-18.71,16.78-27.7Z"/></g><g class="cls-19"><path class="cls-20" d="M170.8,110.65s12,16,5.9,28.63c-1.23,2.55-11,3.6-11,3.6S171.8,124.75,159,112Z"/></g><g class="cls-19"><path class="cls-20" d="M156.47,112.21s13.33,14,6.45,31.2l-5.3.58s3.84-18.43-8.12-30.89Z"/></g><path class="cls-3" d="M123.73,131.61l-4.5-6.5c-.24-.3-4-4.77-13.41-1.13a2.11,2.11,0,0,1-2.18-.33c-1-.85-.48-1.86-.13-2.59.53-1.11,1-2.35.42-3l-1.72-1.82,2.5-.74c.46-.14,11.34-3.29,18.43,1.83l1.34,1-1,1.23a6.09,6.09,0,0,0-1,4.49Zm-10.52-12.26a14.38,14.38,0,0,1,4.61.92,12.42,12.42,0,0,1,1.26.58,9.19,9.19,0,0,1,.61-1.76c-4-2-9.19-1.48-11.94-1a5.14,5.14,0,0,1-.06,1.84A20.24,20.24,0,0,1,113.21,119.35Z"/></g></g></svg>